<svg xmlns="http://www.w3.org/2000/svg" viewBox="0 0 1600 500" width="100%" height="100%">
  <defs>
    <linearGradient id="aboutGrad" x1="0%" y1="0%" x2="100%" y2="100%">
      <stop offset="0%" stop-color="#0b0f19"/>
      <stop offset="50%" stop-color="#1d4ed8"/>
      <stop offset="100%" stop-color="#0f172a"/>
    </linearGradient>
  </defs>
  <rect width="1600" height="500" fill="url(#aboutGrad)"/>
  <!-- Strategic Vision Shield & Compass Star -->
  <g opacity="0.35" transform="translate(150, 110)">
    <path d="M100,20 L180,50 L180,120 C180,170 100,210 100,210 C100,210 20,170 20,120 L20,50 Z" fill="none" stroke="#93c5fd" stroke-width="5"/>
    <polygon points="100,60 115,95 150,100 125,125 130,160 100,140 70,160 75,125 50,100 85,95" fill="#93c5fd" opacity="0.4"/>
  </g>
  <g opacity="0.35" transform="translate(1300, 110)">
    <circle cx="100" cy="100" r="80" fill="none" stroke="#93c5fd" stroke-width="4"/>
    <polygon points="100,20 120,80 180,100 120,120 100,180 80,120 20,100 80,80" fill="none" stroke="#93c5fd" stroke-width="3"/>
  </g>
</svg>
