<svg xmlns="http://www.w3.org/2000/svg" xmlns:xlink="http://www.w3.org/1999/xlink" id="Layer_1" x="0px" y="0px" viewBox="0 0 1474.43 432" style="enable-background:new 0 0 1474.43 432;" xml:space="preserve"><style type="text/css">	.st0{fill-rule:evenodd;clip-rule:evenodd;fill:#196383;}	.st1{fill-rule:evenodd;clip-rule:evenodd;fill:#1093C4;}	.st2{fill-rule:evenodd;clip-rule:evenodd;fill:#5F696B;}</style><g>	<path class="st0" d="M210.18,219.63h151.31c-49.58,50.17-100.22,101.39-151.31,153.05V219.63z"></path>	<path class="st1" d="M210.18,206.36V55.04c50.15,49.59,101.39,100.24,153.05,151.33H210.18z"></path>	<path class="st2" d="M164.87,348.1c12.92,12.93,25.78,25.89,38.74,38.78c8.07,8.01,5.91,8.03,13.99-0.05   c56.58-56.54,113.1-113.15,169.79-169.61c3.74-3.74,4.17-5.81,0.17-9.79c-57.51-57.22-114.86-114.59-172.1-172.1   c-3.88-3.9-6.01-3.91-9.81,0.03c-12,12.52-24.44,24.64-36.72,36.9c-1.43,1.42-2.91,2.78-5.42,5.16c0-8.48-0.04-15.55,0.08-22.64   c0.01-1,0.64-2.2,1.39-2.94c15.01-15.1,30.08-30.13,44.66-44.7c68.67,68.67,137.07,137.05,204.89,204.86   c-67.75,67.74-136.24,136.22-205.68,205.66c-2.46-2.74-5.57-6.51-8.95-9.97c-10.87-11.02-21.99-21.77-32.69-32.96   c-2.05-2.15-3.28-5.73-3.58-8.78c-0.56-5.73-0.17-11.57-0.17-17.36L164.87,348.1z"></path>	<path class="st2" d="M133.11,339.63C90.32,296.82,47.95,254.46,5.95,212.45c42.17-42.14,84.61-84.58,127.13-127.11   c0,6.73,0.32,13.84-0.17,20.89c-0.13,2.06-2.22,4.22-3.89,5.88c-31.52,31.66-63.15,63.24-94.75,94.85   c-5.27,5.29-5.27,5.29-0.17,10.4c31.34,31.34,62.61,62.74,94.08,93.94c3.66,3.62,5.44,7.21,5.05,12.37   C132.81,328.89,133.11,334.16,133.11,339.63z"></path>	<polygon class="st2" points="662.65,70.06 662.65,99.83 728.86,99.83 728.86,125.5 662.65,125.5 662.65,155.86 738.27,155.86    738.27,181.53 631.69,181.53 631.69,44.4 736.14,44.4 736.14,70.06  "></polygon>	<path class="st2" d="M822.12,116.49c17.03,0,26.84-7.83,26.84-23.52c0-15.27-9.81-22.92-26.84-22.92H793.5v46.43H822.12   L822.12,116.49z M825.05,142.35h-2.92H793.5v39.18h-30.94V44.39h59.56c35.84,0,56.22,17.23,56.22,47.6   c0,21.16-9.02,36.44-25.67,44.28l29.19,45.26H846.8L825.05,142.35z"></path>	<polygon class="st2" points="963.57,70.65 963.57,181.53 932.61,181.53 932.61,70.65 890.89,70.65 890.89,44.4 1005.47,44.4    1005.47,70.65  "></polygon>	<rect x="1022.11" y="44.4" class="st2" width="30.94" height="137.14"></rect>	<path class="st2" d="M1200.79,66.15l-18.02,21.93c-9.41-10.78-22.94-17.83-35.68-17.83c-23.49,0-41.71,18.23-41.71,42.12   c0,23.9,18.23,42.32,41.71,42.32c12.35,0,25.87-6.28,35.68-16.08l18.21,19.79c-14.52,14.88-35.45,24.49-55.45,24.49   c-40.94,0-71.9-30.36-71.9-70.14c0-39.57,31.55-69.34,73.08-69.34C1166.49,43.42,1187.27,52.23,1200.79,66.15z"></path>	<polygon class="st2" points="1250.36,70.06 1250.36,99.83 1316.55,99.83 1316.55,125.5 1250.36,125.5 1250.36,155.86    1325.97,155.86 1325.97,181.53 1219.4,181.53 1219.4,44.4 1323.81,44.4 1323.81,70.06  "></polygon>	<path class="st2" d="M1452.52,57.91l-11.94,25.66c-14.5-8.62-31.76-14.1-42.71-14.1c-10.4,0-17.44,3.72-17.44,11.16   c0,25.27,73.05,11.17,72.88,60.54c0,26.84-23.32,41.33-53.7,41.33c-22.52,0-45.04-8.61-60.51-21.74l12.33-25.27   c14.12,12.54,34.1,20.58,48.59,20.58c12.74,0,20.38-4.7,20.38-13.12c0-25.86-73.08-10.78-73.08-59.37   c0-24.88,21.34-40.55,53.1-40.55C1419.6,43.02,1438.8,48.91,1452.52,57.91z"></path>	<polygon class="st2" points="584.67,44.39 547.06,147.83 509.64,44.39 476.33,44.39 476.38,44.47 454.62,44.47 476.18,70.38    486.56,70.38 530.21,181.53 562.15,181.53 616.6,44.39  "></polygon>	<path class="st1" d="M490.89,276.32h10.81c7.45,0,11.66-3.16,11.66-9.76c0-6.36-4.21-9.41-11.66-9.41h-10.81V276.32L490.89,276.32z    M502.05,249.82c12.17,0,19.16,6.01,19.16,16.54c0,10.94-6.99,17.3-19.16,17.3h-11.15v14.61h-8.17v-48.45H502.05z"></path>	<path class="st1" d="M631.13,258.54l-9.14,21.53h18.27L631.13,258.54L631.13,258.54z M618.96,287.33l-4.64,10.95h-8.52l21.39-48.47   h8.4l21.18,48.47h-8.74l-4.63-10.95H618.96z"></path>	<path class="st1" d="M768.67,276.32c7.49,0,11.78-3.16,11.78-9.76c0-6.36-4.29-9.41-11.78-9.41h-11.5v19.18H768.67L768.67,276.32z    M770.9,283.6c-0.7,0.06-1.49,0.06-2.23,0.06h-11.5v14.61h-8.15v-48.45h19.65c12.42,0,19.52,6.01,19.52,16.54   c0,7.76-3.6,13.22-10.03,15.72l10.88,16.19h-9.28L770.9,283.6z"></path>	<polygon class="st1" points="902.63,257.15 902.63,298.28 894.46,298.28 894.46,257.15 879.17,257.15 879.17,249.83 918,249.83    918,257.15  "></polygon>	<polygon class="st1" points="1044.82,298.28 1018.98,263.53 1018.98,298.28 1010.82,298.28 1010.82,249.81 1018.85,249.81    1044.82,284.64 1044.82,249.81 1052.82,249.81 1052.82,298.28  "></polygon>	<polygon class="st1" points="1159.66,257.15 1159.66,270.23 1183.33,270.23 1183.33,277.57 1159.66,277.57 1159.66,290.93    1186.92,290.93 1186.92,298.28 1151.48,298.28 1151.48,249.83 1186.1,249.83 1186.1,257.15  "></polygon>	<path class="st1" d="M1302.38,276.32c7.49,0,11.78-3.16,11.78-9.76c0-6.36-4.29-9.41-11.78-9.41h-11.5v19.18H1302.38   L1302.38,276.32z M1304.6,283.6c-0.69,0.06-1.46,0.06-2.22,0.06h-11.5v14.61h-8.17v-48.45h19.67c12.4,0,19.52,6.01,19.52,16.54   c0,7.76-3.6,13.22-10.02,15.72l10.86,16.19h-9.27L1304.6,283.6z"></path>	<path class="st1" d="M1451.5,254.46l-3.41,7.19c-5.25-3.19-10.51-4.51-14.18-4.51c-4.79,0-7.9,1.81-7.9,5.07   c0,10.57,26.18,4.91,26.09,22.36c0,8.65-7.62,13.99-18.27,13.99c-7.6,0-14.81-3.12-19.79-7.68l3.52-7.07   c4.99,4.57,11.24,7.07,16.42,7.07c5.68,0,9.06-2.16,9.06-5.9c0-10.8-26.17-4.78-26.17-22.02c0-8.3,7.13-13.48,17.65-13.48   C1440.84,249.48,1447,251.48,1451.5,254.46z"></path>	<path class="st1" d="M486.21,382.93h7.87c5.52,0,8.7-2.45,8.7-7.21c0-4.65-3.18-7-8.7-7h-7.87V382.93L486.21,382.93z    M494.21,365.35c7.58,0,11.95,3.76,11.95,10.28c0,6.79-4.36,10.68-11.95,10.68h-8v9.66h-3.49v-30.62H494.21z"></path>	<path class="st1" d="M524.48,382.93c5.57,0,8.71-2.45,8.71-7.21c0-4.65-3.14-7-8.71-7h-8.12v14.21H524.48L524.48,382.93z    M526.53,386.22c-0.65,0.04-1.35,0.09-2.05,0.09h-8.12v9.66h-3.51v-30.62h11.62c7.66,0,12.09,3.76,12.09,10.28   c0,5.08-2.45,8.5-6.87,9.93l7.17,10.41h-3.99L526.53,386.22z"></path>	<path class="st1" d="M546.01,380.66c0,6.74,5.68,12.12,12.51,12.12c6.81,0,12.42-5.38,12.42-12.12c0-6.72-5.61-12.06-12.42-12.06   C551.69,368.6,546.01,373.94,546.01,380.66L546.01,380.66z M574.52,380.66c0,8.61-7.08,15.49-16,15.49   c-8.97,0-16.06-6.87-16.06-15.49c0-8.65,7.09-15.4,16.06-15.4C567.45,365.26,574.52,372.04,574.52,380.66z"></path>	<path class="st1" d="M592.76,369.33l-6.83,15.54h13.76L592.76,369.33L592.76,369.33z M584.45,388.22l-3.41,7.74h-3.72l13.73-30.62   h3.64l13.69,30.62h-3.82l-3.41-7.74H584.45z"></path>	<path class="st1" d="M638.34,369.72l-2.09,2.67c-2.38-2.41-5.7-3.86-9.06-3.86c-6.92,0-12.48,5.34-12.48,12.08   c0,6.69,5.56,12.07,12.48,12.07c3.36,0,6.64-1.4,9.06-3.67l2.13,2.39c-3.03,2.85-7.13,4.71-11.39,4.71   c-8.82,0-15.8-6.85-15.8-15.51c0-8.58,7.08-15.36,15.95-15.36C631.33,365.26,635.4,366.97,638.34,369.72z"></path>	<polygon class="st1" points="654.88,368.73 654.88,395.97 651.39,395.97 651.39,368.73 641.38,368.73 641.38,365.35 664.88,365.35    664.88,368.73  "></polygon>	<rect x="670.84" y="365.35" class="st1" width="3.49" height="30.62"></rect>	<polygon class="st1" points="692.53,395.97 680.1,365.34 683.86,365.34 694.4,391.91 705,365.34 708.66,365.34 696.16,395.97  "></polygon>	<polygon class="st1" points="717.96,368.73 717.96,378.78 733.38,378.78 733.38,382.14 717.96,382.14 717.96,392.64 735.79,392.64    735.79,395.97 714.44,395.97 714.44,365.35 735.22,365.35 735.22,368.73  "></polygon>	<rect x="768.98" y="360.34" class="st0" width="2.69" height="40.92"></rect>	<path class="st1" d="M810.55,382.93h7.88c5.51,0,8.68-2.45,8.68-7.21c0-4.65-3.18-7-8.68-7h-7.88V382.93L810.55,382.93z    M818.54,365.35c7.57,0,11.94,3.76,11.94,10.28c0,6.79-4.38,10.68-11.94,10.68h-7.99v9.66h-3.49v-30.62H818.54z"></path>	<polygon class="st1" points="840.66,368.73 840.66,378.78 856.12,378.78 856.12,382.14 840.66,382.14 840.66,392.64 858.52,392.64    858.52,395.97 837.17,395.97 837.17,365.35 857.95,365.35 857.95,368.73  "></polygon>	<path class="st1" d="M870,392.65h8.94c6.82,0,12.15-5.11,12.15-11.95c0-6.87-5.41-11.97-12.28-11.97H870V392.65L870,392.65z    M878.91,365.35c8.92,0,15.72,6.6,15.72,15.31c0,8.7-6.87,15.31-15.88,15.31h-12.24v-30.61H878.91z"></path>	<rect x="901.91" y="365.35" class="st1" width="3.49" height="30.62"></rect>	<path class="st1" d="M939.99,381.02v11.11c-3.02,2.4-7.26,4.01-11.37,4.01c-8.87,0-15.97-6.87-15.97-15.49   c0-8.61,7.14-15.4,16.15-15.4c4.24,0,8.36,1.63,11.29,4.21l-2.01,2.62c-2.5-2.22-5.87-3.55-9.28-3.55   c-6.99,0-12.59,5.41-12.59,12.12c0,6.79,5.65,12.16,12.64,12.16c2.76,0,5.68-0.95,8.05-2.58v-9.21H939.99z"></path>	<path class="st1" d="M960.99,382.93c5.56,0,8.7-2.45,8.7-7.21c0-4.65-3.14-7-8.7-7h-8.12v14.21H960.99L960.99,382.93z    M963.04,386.22c-0.66,0.04-1.36,0.09-2.05,0.09h-8.12v9.66h-3.51v-30.62h11.63c7.66,0,12.07,3.76,12.07,10.28   c0,5.08-2.46,8.5-6.86,9.93l7.17,10.41h-3.97L963.04,386.22z"></path>	<polygon class="st1" points="985.36,368.73 985.36,378.78 1000.79,378.78 1000.79,382.14 985.36,382.14 985.36,392.64    1003.19,392.64 1003.19,395.97 981.84,395.97 981.84,365.35 1002.62,365.35 1002.62,368.73  "></polygon>	<polygon class="st1" points="1014.69,368.73 1014.69,378.78 1030.15,378.78 1030.15,382.14 1014.69,382.14 1014.69,392.64    1032.54,392.64 1032.54,395.97 1011.2,395.97 1011.2,365.35 1031.97,365.35 1031.97,368.73  "></polygon>	<rect x="1065.74" y="360.34" class="st0" width="2.71" height="40.92"></rect>	<path class="st1" d="M1107.29,382.93h7.88c5.52,0,8.72-2.45,8.72-7.21c0-4.65-3.2-7-8.72-7h-7.88V382.93L1107.29,382.93z    M1115.3,365.35c7.58,0,11.93,3.76,11.93,10.28c0,6.79-4.35,10.68-11.93,10.68h-8.01v9.66h-3.49v-30.62H1115.3z"></path>	<polygon class="st1" points="1137.43,368.73 1137.43,378.78 1152.85,378.78 1152.85,382.14 1137.43,382.14 1137.43,392.64    1155.27,392.64 1155.27,395.97 1133.94,395.97 1133.94,365.35 1154.69,365.35 1154.69,368.73  "></polygon>	<path class="st1" d="M1174.91,382.93c5.57,0,8.71-2.45,8.71-7.21c0-4.65-3.14-7-8.71-7h-8.13v14.21H1174.91L1174.91,382.93z    M1176.97,386.22c-0.65,0.04-1.37,0.09-2.06,0.09h-8.13v9.66h-3.5v-30.62h11.63c7.66,0,12.09,3.76,12.09,10.28   c0,5.08-2.46,8.5-6.87,9.93l7.15,10.41h-3.97L1176.97,386.22z"></path>	<polygon class="st1" points="1199.26,368.73 1199.26,379.49 1213.57,379.49 1213.57,382.85 1199.26,382.85 1199.26,395.97    1195.76,395.97 1195.76,365.35 1215.25,365.35 1215.25,368.73  "></polygon>	<path class="st1" d="M1221.92,380.66c0,6.74,5.68,12.12,12.51,12.12c6.83,0,12.43-5.38,12.43-12.12c0-6.72-5.6-12.06-12.43-12.06   C1227.61,368.6,1221.92,373.94,1221.92,380.66L1221.92,380.66z M1250.45,380.66c0,8.61-7.08,15.49-16.01,15.49   c-8.96,0-16.05-6.87-16.05-15.49c0-8.65,7.09-15.4,16.05-15.4C1243.38,365.26,1250.45,372.04,1250.45,380.66z"></path>	<path class="st1" d="M1269.33,382.93c5.58,0,8.71-2.45,8.71-7.21c0-4.65-3.13-7-8.71-7h-8.12v14.21H1269.33L1269.33,382.93z    M1271.4,386.22c-0.67,0.04-1.37,0.09-2.07,0.09h-8.12v9.66h-3.5v-30.62h11.62c7.67,0,12.09,3.76,12.09,10.28   c0,5.08-2.46,8.5-6.87,9.93l7.15,10.41h-3.99L1271.4,386.22z"></path>	<polygon class="st1" points="1317.93,395.97 1317.89,370.73 1306.74,392.73 1304.63,392.73 1293.51,370.73 1293.51,395.97    1290.2,395.97 1290.2,365.34 1294.52,365.34 1305.73,387.4 1316.88,365.34 1321.16,365.34 1321.16,395.97  "></polygon>	<path class="st1" d="M1342.35,369.33l-6.82,15.54h13.73L1342.35,369.33L1342.35,369.33z M1334.03,388.22l-3.43,7.74h-3.72   l13.74-30.62h3.64l13.68,30.62h-3.79l-3.42-7.74H1334.03z"></path>	<polygon class="st1" points="1385.51,395.97 1367.14,371.38 1367.14,395.97 1363.64,395.97 1363.64,365.34 1367.26,365.34    1385.64,389.98 1385.64,365.34 1389.09,365.34 1389.09,395.97  "></polygon>	<path class="st1" d="M1423.56,369.72l-2.1,2.67c-2.36-2.41-5.69-3.86-9.06-3.86c-6.91,0-12.47,5.34-12.47,12.08   c0,6.69,5.56,12.07,12.47,12.07c3.37,0,6.63-1.4,9.06-3.67l2.15,2.39c-3.03,2.85-7.13,4.71-11.39,4.71   c-8.83,0-15.83-6.85-15.83-15.51c0-8.58,7.09-15.36,15.96-15.36C1416.56,365.26,1420.63,366.97,1423.56,369.72z"></path>	<polygon class="st1" points="1434.29,368.73 1434.29,378.78 1449.71,378.78 1449.71,382.14 1434.29,382.14 1434.29,392.64    1452.12,392.64 1452.12,395.97 1430.77,395.97 1430.77,365.35 1451.55,365.35 1451.55,368.73  "></polygon></g></svg>